<svg xmlns="http://www.w3.org/2000/svg" xmlns:xlink="http://www.w3.org/1999/xlink" version="1.1" x="0px" y="0px" viewBox="0 0 1000 1250" enable-background="new 0 0 1000 1000" xml:space="preserve"><g><path d="M452.8,855.8c1.3-6.7,2-15,2-25c0-16-2-32.5-3.3-37.3c-0.8-3-3.9-4.7-6.9-3.8c-3,0.8-4.7,3.9-3.8,6.9   c0.9,3,2.9,18.2,2.9,34.2c0,8.4-0.5,14.8-1.2,19.7c-0.2,0-0.4-0.1-0.6-0.1c-4.6-0.6-8.9,1.1-12,4.6c-2.9,3.3-4.9,8.3-5.7,14.9   c-0.3,2.5,1,4.8,3.3,5.8c8.5,3.8,14.2,0.5,16.9-1.9c1.8-1.5,3.3-3.5,4.6-6c2.6,3.6,4.3,8.1,3.9,11.9c-1.1,10.1-18.5,9.4-25.9,8.7   c-6.9-0.7-11.4-2.8-13.8-6.5c-5.9-9.1,0.5-28.2,6.1-45c3.5-10.3,6.7-20.1,7.4-28c0.1-0.8,0.2-2.1,0.3-3.9c0.5-7,1.4-21.9,3.4-37.1   c2.1,4,5.6,6.3,9.9,6.3c0,0,0.1,0,0.1,0c8.3,0,16.1-8.3,20.1-16.6c5.9-12,4.9-24.8-2.6-34.2c-5.9-7.4-11.9-10.2-17.9-8.3   c-4.4,1.4-8,5.1-11.1,11.7c-4.2-20.7-5.6-42.7-7-64.3c-0.7-11.2-1.5-22.8-2.6-33.7c-0.7-7-1.4-14.2-2-21.2   c-3.4-38-7-77.4-24.4-112.9c-7.9-16.2-11.6-34.4-11.1-55.6c0.4-19.2,4-39.1,7.5-58.3c3.7-20.2,7.5-41,7.6-61.1   c0.1-23-4.8-42.6-14.9-59.9c-1.6-2.7-5-3.5-7.6-2c-2.7,1.6-3.5,5-2,7.6c20.4,34.8,13.4,73,6,113.4c-7.3,39.9-14.8,81.1,4.6,120.8   c16.4,33.6,19.9,71.9,23.3,109c0.6,7,1.3,14.2,2,21.3c1.1,10.8,1.8,21.7,2.6,33.3c1.9,28.5,3.8,57.7,11.8,84.3   c-0.6,3-1.2,6.1-1.8,9.5c-3.1,18.6-4.4,38.8-4.9,47.4c-0.1,1.7-0.2,3-0.2,3.7c-0.6,6.6-3.6,15.7-6.9,25.4   c-6.7,20.1-13.7,41-4.9,54.6c4.3,6.6,11.7,10.5,22,11.5c3,0.3,5.8,0.4,8.4,0.4c24.7,0,29-13,29.7-19c0.7-6.3-1.5-13.4-5.9-19.6   C456.3,859.2,454.6,857.4,452.8,855.8z M436.8,865.5c-0.2,0.1-0.3,0.3-0.6,0.4c0.7-2,1.7-3.9,3.2-4.4   C438.4,863.9,437.4,865,436.8,865.5z M443.1,725.7c0.7-0.2,2.8,0.8,5.9,4.6c7.6,9.6,2.3,20.8,0.5,24c-3.5,6.2-7.9,8.8-9.2,8.8   c-0.1-0.1-0.2-0.2-0.3-0.5c-2.4-5.1-4.4-10.3-6.1-15.8C438.3,727.5,442.9,725.8,443.1,725.7z"/><path d="M343.3,466.9c-14.8,1.9-25.1,19.8-33.3,40c-12.6-5.7-24.3-11.4-32.6-15.5c-5.2-2.6-9-4.4-11-5.3   c-15.7-6.6-46.2-20.7-74.2-40.7c-28.4-20.4-46-40.9-52.3-61.1c-0.9-2.9-4-4.6-7-3.7c-2.9,0.9-4.6,4-3.7,7c7,22.5,26,45,56.5,66.8   c28.9,20.7,60.3,35.2,76.4,41.9c1.7,0.7,5.6,2.6,10.4,5c8.5,4.2,20.5,10.1,33.6,15.9c-1.7,4.8-3.4,9.5-5,14.1   c-2.9,8.4-5.5,15.7-7.6,19.9c-10.8,21.3-22.5,44-37.1,66.2c-13.1,20-21.8,40.1-25.9,59.9c-3.6,17.2-3.8,34.8-0.6,52.2   c5.8,31.7,21.5,57.7,34.2,78.5c3.7,6.1,7.2,11.8,9.9,16.9c3.8,7.1,9.5,14.6,14.9,21.8c8.4,11.1,17.9,23.7,16.9,31   c-1.2,9.2-10.5,15.8-19.1,18.4c-7.5,2.2-17.6,2.1-23.5-4.8c-3-3.6-3.9-7.6-2.6-12.1c0.7,0.4,1.4,0.7,2.2,1.1   c8.1,3.8,16.7,4.7,23,2.4c4.4-1.6,7.6-4.7,9.1-8.8c1.5-4.1,1.3-9.1-0.6-14.8c-1.8-5.4-6.2-8.8-11.9-9.2   c-7.9-0.6-17.9,4.8-24.8,12.7c-0.9-1.2-1.7-2.5-2.2-3.9c-6-15.4-10.3-28.9-14.5-42c-11.4-35.7-20.5-64.1-54.3-94.1   c24-40.1,35.7-85.6,33.9-131.9c-1.9-47.5-18.1-93.8-46.7-133.8c-1.4-1.9-3.8-2.8-6.1-2.1c-2.3,0.7-3.9,2.7-4,5   c-0.1,0.9-5.3,92.6-16.8,124c-2.2,6-4.5,11.9-6.7,17.6c-8.8,22.8-17.2,44.4-19.5,70.8c-1.1,12.9-2.4,25.3-6,36.9   c-0.8,2.7-1.8,5.4-2.8,7.8c-1.6-2.2-3.5-4.3-5.8-6.2c-6-5-13.4-6.1-20.1-3c-7.2,3.3-12.1,10.9-12.3,19   c-0.3,13.7,3.8,23.4,11.1,26.5c3.4,1.5,10.6,2.7,19.5-6c1.2-1.2,2.4-2.4,3.5-3.6c-0.1,7-1.2,14.7-2.3,22.6   c-1,7.2-2.1,14.7-2.2,21.6c-0.7,29-0.3,43.6,7.2,71.4c2.2,8.1,6.4,14.2,10.1,19.6c5.8,8.4,8.4,12.8,5.2,20.1   c-1.2,2.8,0.1,6.1,2.9,7.3c2.8,1.2,6.1-0.1,7.3-2.9c5.8-13.3-0.6-22.7-6.3-30.9c-3.3-4.9-6.8-9.9-8.5-16.1   c-7.1-26.5-7.5-39.8-6.8-68.2c0.2-6.3,1.1-13.1,2.1-20.3c1.7-12.4,3.6-25.8,1.1-37.5c3.2-5.5,5.8-11.5,7.8-18   c3.9-12.6,5.2-25.7,6.4-39.2c2.2-24.8,10.2-45.7,18.8-67.8c2.2-5.7,4.5-11.7,6.7-17.8c9.1-24.9,14.3-82.4,16.4-110.8   c21.7,35,34,74.2,35.6,114.3c1.9,45.6-10.1,90.4-34.7,129.6c-1.5,2.3-1,5.4,1.1,7.2c34.4,29.1,42.8,55.5,54.5,92.1   c4,12.6,8.6,26.9,14.8,42.6c1.3,3.4,3.5,6.7,6.3,9.6c-4.1,9.3-2.8,18.8,3.5,26.2c5.6,6.6,14,10.1,23.4,10.1c3.8,0,7.7-0.6,11.7-1.7   c14.7-4.3,25.3-15.1,27-27.5c1.6-11.8-8.4-25.1-19-39.2c-5.2-6.9-10.5-14-14-20.4c-2.9-5.4-6.4-11.2-10.2-17.4   c-12.2-20-27.3-45-32.7-74.7c-6.3-34.7,1.8-68.7,24.9-104c14.8-22.7,26.8-45.7,37.7-67.3c2.4-4.8,5.1-12.4,8.1-21.3   c1.4-4.2,3-8.7,4.7-13.3c5.2,2.2,10.4,4.3,15.5,6.2c16.8,6.3,29.4,9.4,38.5,9.4c7,0,12-1.8,15.2-5.5c7-7.9,3.6-21.5-10.5-42.9   C364.4,472.8,354,465.6,343.3,466.9z M281.5,861c1.2,0.1,1.7,0.5,2.1,1.7c2.7,8-0.5,9.2-1.7,9.6c-3.7,1.4-10.1,0.3-15.8-2.6   C271,864.2,277.6,860.7,281.5,861z M96.3,739.3c-3.7,3.5-6.2,4.2-7.3,3.8c-1.9-0.8-4.6-5.8-4.4-16.1c0.1-3.8,2.5-7.5,5.8-9.1   c0.8-0.4,1.9-0.7,3.1-0.7c1.6,0,3.4,0.5,5.3,2.2c3.1,2.6,5.2,5.7,6.5,9.3C102.8,732.5,99.8,736,96.3,739.3z M377.2,524.4   c-0.9,1.1-7.4,5.8-41.5-6.9c-5.1-1.9-10.3-4-15.4-6.2c2-5,4.2-9.9,6.5-14.3c6.1-11.8,12.3-18.4,17.9-19c7.5-0.9,15.6,8.7,21.1,17   C381.4,518.6,377.7,523.9,377.2,524.4z"/><path d="M919.4,150.2c-6.2-8.4-16.7-16.8-31.2-24.7c-23.9-13.1-38-6.7-44.3-1.7c-10.3,8.1-14.2,23.2-10,38.6   c1,3.8,2.5,7.4,4.4,10.8c-2.3,1.9-4.6,3.9-6.9,5.8c-6.4,5.5-12.4,10.7-18.7,13.6c-6.5,3-12.2,3.1-18.5,0.4   c-7.2-3.1-10.9-8.4-10.6-15.2c0.1-1.3,0.2-2.6,0.5-3.8c8,0.9,15.1,0,21.4-2.4c6.1-2.4,11-6.4,13.7-11.2c3.1-5.5,3-11.3-0.3-15.2   c-1.7-2-6.7-6.3-17-2.7c-8.4,2.9-15.7,7.8-21,14.3c-5.2,6.2-8.2,13.6-8.4,20.7c-0.4,11.5,5.9,20.9,17.3,25.9   c4.7,2,9.1,2.9,13.3,2.9c14,0,25.3-9.8,35.6-18.6c2.1-1.8,4.1-3.6,6.2-5.2c1.1,1.2,2.3,2.4,3.6,3.6c8,7.1,18,11.5,29.8,13.1   c1.5,0.2,3,0.3,4.3,0.3c8.4,0,12.1-3.9,13.5-6.5c3.1-5.3,1.8-12.6-3.4-19.5c-3.5-4.6-8.3-8.3-13.7-10.6c-6.3-2.7-13.1-3.2-19.5-1.5   c-4.3,1.1-8.3,3.1-12.1,5.4c-1.2-2.3-2.1-4.7-2.8-7.2c-3-10.8-0.5-21.6,6.1-26.9c7.2-5.7,18.6-4.7,32.1,2.7   c16.5,9,35.4,22.9,32.1,38c-2,9.2-11.9,18.6-27.9,26.5c-14.1,6.9-31.6,11.9-45.8,13c-17.1,1.3-34.8-1-49.8-6.6   c-15.6-5.7-27.6-14.5-34.7-25.4c-4.9-7.6-7.4-16.2-7.4-25.4c12,0.3,25.1-2.1,37.4-7.1c13.6-5.5,23.9-11.3,30.5-17.4   c8.4-7.7,9.7-14.6,9.3-19c-0.8-9.2-9.5-16.6-22.7-19.3c-18.1-3.7-42.9,2.1-54.4,23.4c-0.9,1.6-1.6,3.1-2.4,4.7   c0.4-3.3,0.2-6.3-0.5-9.1c-1.4-5.1-4.8-9-9.7-11.2c-4.9-2.2-11.2-2.7-19-1.5c-8.5,1.3-18.7,3.9-21.8,11.7c-3,7.5,2.1,15.7,8,23.3   c1.6,2.1,3.3,4,5.2,5.8c-4.1,9.1-9.9,17.1-15.5,24.9c-11.7,16.3-23.9,33.2-17.6,58.1c7.2,28.7,1.3,54-5,70.2   c-7.9,20.4-18.9,33.3-24,36.6c-14.6,9.5-27.6,12.6-39.7,9.4c-26.5-6.9-45.5-43.3-62.2-75.3c-8.4-16.2-16.4-31.5-24.9-42.2   c-11.9-14.9-26.5-26.4-43.5-34.2c-15-6.9-32.4-11.2-51.7-12.6c-11.6-0.9-23.3-0.7-35.1,0.1c-1.1-2.1-2.3-4.1-3.7-6.1   c-25.3-36.1-53.3-53.8-83.1-52.7c-20.9,0.7-42.1,10.7-63,29.6c-20.6,18.6-35.7,41.3-42.8,53.2c-1.8,3.1-3.7,6.1-5.5,9.2   c-20.3,34-41.4,69.1-64.3,102.3c-4.4,6.4-10.2,13.4-16.3,20.8c-16.1,19.5-34.3,41.5-37.2,64.5c-3.2,24.7,2.7,52.2,8.4,78.8   c4.1,19.2,8,37.3,8.7,54.3c1.8,42.6-5.5,111.4-17.9,167.3c-0.7,3,1.2,6,4.2,6.6c0.4,0.1,0.8,0.1,1.2,0.1c2.6,0,4.9-1.8,5.4-4.4   c12.6-56.7,20-126.7,18.2-170.2c-0.8-17.9-4.9-37.3-9-56.1c-5.5-25.7-11.2-52.3-8.3-75c2.5-19.8,19.7-40.6,34.8-58.9   c6.2-7.6,12.1-14.7,16.9-21.6c23.1-33.5,44.2-68.8,64.7-102.9c1.8-3.1,3.7-6.1,5.5-9.2c11.7-19.6,26.2-37.6,40.7-50.6   c18.9-17.1,37.8-26.1,56-26.7c25.8-0.9,50.6,15.2,73.6,48c0.2,0.3,0.4,0.5,0.6,0.8c-21.2,2.3-42,6.6-61,10.9   c-20,4.6-39.5,9.3-58.4,16.5c-23,8.8-40,19.7-52.1,33.2c-7.5,8.3-12.8,17.5-15.4,26.5c-2.7,9.3-2.4,18.3,0.8,25.9   c3.2,7.7,12.6,20.9,38.6,22.1c20.1,0.9,53.1-8.5,84.1-24.1c16.2-8.1,31.2-17.6,43.4-27.4c13.9-11.2,24.3-22.8,30.7-34.4   c7.4-13.4,9.4-26.7,6-39.4c10.1-0.6,20.1-0.6,29.9,0.1c38.2,2.9,66.7,16.9,87.3,42.7c7.8,9.8,15.5,24.6,23.7,40.4   c17.8,34.1,37.9,72.8,69.2,81c15.1,4,31.5,0.3,48.6-10.9c7.8-5.1,20-20.4,28.3-41.9c6.8-17.7,13.3-45.4,5.4-76.9   c-5-19.8,4.7-33.3,15.9-48.8c5-7,10.2-14.1,14.4-22.3c2.1,1,4.4,1.3,6.8,1.1c4.4,2,9.1,3.5,14.2,4.4c-0.3,14,4.1,24.8,9.2,32.6   c8.4,12.9,22.3,23.2,40.2,29.8c16.5,6.1,35.8,8.6,54.5,7.2c15.4-1.2,34.5-6.6,49.8-14.1c13.5-6.7,30.3-18,33.8-34.1   C927.7,167.1,925.6,158.6,919.4,150.2z M805.5,152.9c2.8-1,4.3-0.8,4.8-0.6c0.1,0.5-0.2,2.1-1.8,4c-1.5,1.8-6.8,6.9-18.6,6.9   C794.1,158.4,799.9,154.8,805.5,152.9z M862.3,172c8.8-2.3,17.1,2.4,21.5,8.1c2.7,3.6,3.1,6.4,2.6,7.1c-0.3,0.5-2.3,1.3-6.7,0.7   c-10.5-1.4-19.4-5.7-25.8-12.2C856.7,174.1,859.5,172.8,862.3,172z M759.5,121.2c8.8-16.4,28.1-20.7,42.3-17.8   c7.9,1.6,13.5,5.4,13.9,9.4c0.2,2.7-1.8,6.2-5.7,9.8c-5.7,5.2-14.8,10.4-27.1,15.3c-10.6,4.3-21.8,6.5-32.1,6.3   C752.2,136.9,755.1,129.2,759.5,121.2z M378.9,219.5c-10.9,19.8-36.1,40.6-69.3,57.3c-29.4,14.8-60.2,23.7-78.6,22.9   c-14.8-0.7-25.1-6.1-28.9-15.3c-4.7-11.1,0.2-26.7,12.7-40.7c10.9-12.1,26.5-22,47.8-30.2c18.2-7,37.3-11.6,56.9-16.1   c19.8-4.5,41.7-9,63.8-11.1c1.2,3.6,1.8,7.2,1.8,10.8C385.2,204.4,383.1,211.9,378.9,219.5z M725.2,137.8   c-4.7-2.7-8.7-6.3-12.1-10.7c-6.8-8.8-6.8-11.6-6.5-12.4c0.1-0.3,1.5-3,13.2-4.8c2.4-0.4,4.3-0.5,6-0.5c3.3,0,5.4,0.6,6.7,1.1   c1.9,0.8,3,2.1,3.5,4C738,121.8,731.4,134.1,725.2,137.8z M739.6,143.1c-1-0.2-1.9-0.4-2.8-0.6c1.5-1.6,2.9-3.4,4.2-5.4   C740.4,139.1,740,141.1,739.6,143.1z"/><path d="M823.4,230.9c-1.6,0-3.2,0.7-4.3,1.9c-10.8,12.6-20.6,27.6-30,46c-8,15.6-15.2,32.5-22,48.9c-1.4,3.3-2.8,6.5-4.1,9.8   c-3.7-0.9-6.7-3-9.1-6.5c-6.3-9.1-8.1-27.1-4.9-47c3.1-19.3,10.5-37.1,18.9-45.2c7-6.9,12-4.8,15.6-2.2c2.5,1.8,6,1.2,7.8-1.3   c1.8-2.5,1.2-6-1.3-7.8c-9.7-7-20.6-5.8-29.9,3.3c-10.1,9.9-18.5,29.6-22.1,51.4c-3.8,23.3-1.3,43.4,6.7,55.1   c3.6,5.3,8.3,8.8,13.9,10.6c-7,16.2-14.6,32.2-23.5,46.9c-14,23.1-29.8,40.4-48.3,52.7c-12.4,8.3-67.3,18.2-112.9-0.7   c-21.1-8.8-37-22.3-47.4-40.4c-1.7-4.3-3.5-8.3-5.3-12.1c-1.3-2.8-2.5-5.4-3.5-7.9c-1.3-4.1-2.4-8.4-3.3-12.9   c-0.6-2.8-3.2-4.7-6-4.4c-2.9,0.3-5,2.7-5,5.6c0,5,1.6,10.1,3.9,15.7c2.4,7.4,5.4,14.3,9,20.7c4.4,11.2,7.6,23.7,5,38.1   c-2,11-7.1,21.7-15.5,32.9c-9.9,13.1-24.5,26.6-43.4,40.2c-14.2,10.2-21.9,32-23.4,66.7c-1.3,28.1,1.7,59.9,3.9,83.1   c0.7,7.8,1.4,14.6,1.8,20.3c0.2,2.9,2.7,5.2,5.5,5.2c0.1,0,0.3,0,0.4,0c3.1-0.2,5.4-2.9,5.2-5.9c-0.4-5.8-1.1-12.7-1.8-20.6   c-2.2-22.9-5.1-54.3-3.9-81.6c1.4-30.6,7.7-50.2,18.8-58.1c37.7-27.1,58.5-53.3,63.3-80.1c1.2-6.3,1.4-12.3,0.9-18   c10,10,22.2,18,36.4,23.9c27.1,11.2,55,12.4,73.6,11.4c21.2-1.1,40.8-5.7,49.8-11.7c39-26,59.5-66.6,77.3-107.9   c4.7-0.5,9.8-2,15.2-4.5c13.5-6.2,25.6-18.3,36.1-36.1c10.6-18,16.5-36.8,19.1-46.4c1.9-7.2,1.6-17.6-3.6-24.4   C833.7,233.2,829,230.9,823.4,230.9z M829.8,259c-7.8,29.1-24.8,64.1-49.1,75.2c-1.8,0.8-3.6,1.5-5.2,2.1c0.6-1.4,1.2-2.9,1.8-4.3   c6.8-16.2,13.9-32.9,21.7-48.1c8.4-16.4,17.1-30,26.6-41.5c1,0.4,1.8,1,2.4,1.9C830.7,247.7,831,254.5,829.8,259z"/><path d="M91.4,796.5c-1.1-6.3-2.2-12.3-3-17.9c-0.4-3-3.3-5.1-6.3-4.7c-3,0.4-5.1,3.3-4.7,6.3c0.8,5.8,1.9,11.8,3.1,18.2   c5.2,29.2,11.1,62.3-2,85.6c-1.5,2.7-0.6,6.1,2.1,7.6c0.9,0.5,1.8,0.7,2.7,0.7c1.9,0,3.8-1,4.9-2.8c6.8-12,9.8-27,9.3-45.8   C96.9,827.8,94,811.2,91.4,796.5z"/><path d="M563.2,459.6C563.2,459.6,563.2,459.6,563.2,459.6c-3.1,0-5.6,2.5-5.6,5.5c0,2.3-3.1,5.5-6.7,9.3   c-9.5,10-23.9,25.2-22.8,59.4c0.2,4.7-0.2,8.4-1.1,11.4c-1.3,4.3-4.2,8.2-7.2,12.3c-0.6,0.8-1.2,1.7-1.8,2.5   c-14.3,19.8-23.9,45.5-28.6,76.1c-3.4,22.3-4.1,45.1-4.7,67.2c-0.1,4.2-0.2,8.5-0.4,12.7c-0.1,4.3-0.3,9.2-1.4,13.6   c-1.1,4.5-3.4,9-5.6,13.4l-16.6,33.1c-1.4,2.7-0.3,6.1,2.5,7.5c0.8,0.4,1.6,0.6,2.5,0.6c2,0,4-1.1,5-3.1l16.6-33.1   c2.5-4.9,5-10,6.4-15.7c1.4-5.5,1.6-11.1,1.7-16c0.1-4.3,0.3-8.6,0.4-12.8c0.6-21.7,1.3-44.2,4.6-65.8   c4.4-28.9,13.4-52.9,26.7-71.3c0.6-0.8,1.2-1.6,1.8-2.4c3.5-4.7,7.1-9.6,8.9-15.7c1.3-4.3,1.8-9.1,1.6-15   c-1-29.6,11-42.2,19.8-51.4c5.2-5.5,9.8-10.3,9.8-16.9C568.7,462.1,566.3,459.6,563.2,459.6z"/></g><text x="0" y="1015" fill="#000000" font-size="5px" font-weight="bold" font-family="'Helvetica Neue', Helvetica, Arial-Unicode, Arial, Sans-serif">Created by Alvaro Cabrera</text><text x="0" y="1020" fill="#000000" font-size="5px" font-weight="bold" font-family="'Helvetica Neue', Helvetica, Arial-Unicode, Arial, Sans-serif">from the Noun Project</text></svg>